PathFileType	4	(X/Y/Z)	C:\Github\BTS_project\Data\sports2d_results\test6 Exam_2026-03-06_143334_tvc4_Sports2D\test6 Exam_2026-03-06_143334_tvc4_Sports2D_px_person00.trc
DataRate	CameraRate	NumFrames	NumMarkers	Units	OrigDataRate	OrigDataStartFrame	OrigNumFrames
30.0	30.0	17	22	m	30.0	0	220
Frame#	Time	Hip			RHip			RKnee			RAnkle			RBigToe			RSmallToe			RHeel			LHip			LKnee			LAnkle			LBigToe			LSmallToe			LHeel			Neck			Head			Nose			RShoulder			RElbow			RWrist			LShoulder			LElbow			LWrist			
		X1	Y1	Z1	X2	Y2	Z2	X3	Y3	Z3	X4	Y4	Z4	X5	Y5	Z5	X6	Y6	Z6	X7	Y7	Z7	X8	Y8	Z8	X9	Y9	Z9	X10	Y10	Z10	X11	Y11	Z11	X12	Y12	Z12	X13	Y13	Z13	X14	Y14	Z14	X15	Y15	Z15	X16	Y16	Z16	X17	Y17	Z17	X18	Y18	Z18	X19	Y19	Z19	X20	Y20	Z20	X21	Y21	Z21	X22	Y22	Z22
0	0.0	36.31445941480079	500.7489371563544	0.0	-676.7210859696531	898.959882752205	0.0																-1118.5501926887052	886.2024324348545	0.0																9.043624906777271	610.7616749543571	0.0	5.744654835629692	554.5610274834964	0.0	32.56278527681606	545.943226886071	0.0	2.9708778624338508	629.8584612302608	0.0	-323.79856128132815	731.8332635338336	0.0				-18.736150505092038	637.9034373973311	0.0	-1346.6237509229584	669.6065672896415	0.0			
1	0.0334855403348554	36.257993926386874	501.4502703561529	0.0	-674.4003544637751	898.4529979424649	0.0																-1114.8604785103068	885.7372547473921	0.0																9.0906147201799	610.6988711098202	0.0	5.82690151983154	554.5577471528353	0.0	32.390519790946094	546.1283455567733	0.0	3.1143835743170523	629.8017487588099	0.0	-322.5910915322089	731.6477690822283	0.0				-18.603211331468035	637.784431010174	0.0	-1342.213564066266	669.5993529010059	0.0			
2	0.0669710806697108	36.13963023993236	502.92041407212656	0.0	-669.5356070928977	897.3904594543737	0.0																-1107.126051971438	884.7621432679549	0.0																9.189115374232065	610.567220879357	0.0	5.999308082038711	554.5508708813155	0.0	32.02941465346845	546.516393706384	0.0	3.4152021019327803	629.6828673433218	0.0	-320.05997784130426	731.2589332158325	0.0				-18.32454251789096	637.5349682836269	0.0	-1332.968873389283	669.5842300063243	0.0			
3	0.1004566210045662	35.964480665453515	505.09587053169287	0.0	-662.3369597925393	895.8181599626025	0.0																-1095.6809748730545	883.3192145639856	0.0																9.334872473895862	610.3724104392941	0.0	6.25442801715117	554.5406956657001	0.0	31.495066551733377	547.0906109373399	0.0	3.86034062951232	629.5069516553276	0.0	-316.31454290936756	730.6835503549116	0.0				-17.91218019984752	637.165823897271	0.0	-1319.288971328406	669.5618517867226	0.0			
4	0.1339421613394216	35.77270967110723	507.4777743967148	0.0	-654.4551721556262	894.0966517154696	0.0																-1083.1497779114993	881.7393541894778	0.0																9.494461693674035	610.1591127940612	0.0	6.533758433908691	554.5295548380842	0.0	30.910009653355548	547.7193204827604	0.0	4.347722105086978	629.3143418444951	0.0	-312.21367207771397	730.0535645630712	0.0				-17.460685344679117	636.7616482877129	0.0	-1304.3108680211028	669.5373499091847	0.0			
5	0.167427701674277	35.58591617620174	509.79785491250374	0.0	-646.7779597397417	892.41982596251	0.0																-1070.9438336091455	880.2004997770941	0.0																9.64990870594626	609.9513513818415	0.0	6.805838708391305	554.5187031754873	0.0	30.34013816085437	548.3317115988928	0.0	4.822453382802453	629.1267313049495	0.0	-308.2192411294273	729.439930326049	0.0				-17.020909234552366	636.3679632316268	0.0	-1289.7215278898504	669.5134839885188	0.0			
6	0.2009132420091324	35.404216738787085	512.0546643623665	0.0	-639.3101130806015	890.7887290332014	0.0																-1059.0707584039594	878.7036115630017	0.0																9.801116512684626	609.749255844543	0.0	7.07049906409658	554.5081474492835	0.0	29.785807670713325	548.9274021572566	0.0	5.284238233113704	628.9442371045722	0.0	-304.33374256609335	728.8430305480256	0.0				-16.59312628719186	635.9850143861888	0.0	-1275.5300545976943	669.4902689169203	0.0			
7	0.2343987823439878	35.22342502247684	514.300199404364	0.0	-631.8795737577605	889.1657806217262	0.0																-1047.2569978619963	877.2142013964047	0.0																9.95156892623476	609.5481699217316	0.0	7.333837248452323	554.4976444566246	0.0	29.234246465342117	549.5201168071683	0.0	5.743716131569236	628.7626545957194	0.0	-300.46765489966305	728.2491127193877	0.0				-16.16748042740275	635.60397864931	0.0	-1261.4094780567518	669.4671698215226	0.0			
8	0.2678843226788432	35.0419712374678	516.5539577128569	0.0	-624.4218234121956	887.536888888483	0.0																-1035.3999747124894	875.7193369320606	0.0																10.102572304373883	609.3463476117782	0.0	7.598139790980097	554.4871030014586	0.0	28.680665414056513	550.1150020090557	0.0	6.204876662064355	628.5804071222442	0.0	-296.5874094184668	727.6530199326708	0.0				-15.740275830264995	635.2215475396803	0.0	-1247.237191227708	669.4439861360322	0.0			
9	0.3013698630136986	34.860095053893914	518.8129624496618	0.0	-616.9467124861239	885.9042053273074	0.0																-1023.5153501020295	874.220992636175	0.0																10.253927196868078	609.1440554882352	0.0	7.8630575921790715	554.4765370072867	0.0	28.125795704936756	550.7112720189565	0.0	6.667110708585798	628.3977354026105	0.0	-292.69813127850057	727.055539526855	0.0				-15.312076761677016	634.8382261849017	0.0	-1233.0319133336566	669.4207484822243	0.0			
10	0.334855403348554	34.67819242594025	521.0722956405721	0.0	-609.4705146960748	884.2712843776883	0.0																-1011.6289974944202	872.7224304844666	0.0																10.405304096016366	608.9417339518815	0.0	8.128013911818494	554.4659694768433	0.0	27.570845319034426	551.3076287251487	0.0	7.129411962877026	628.2150371229279	0.0	-288.8082876464166	726.457972248759	0.0				-14.883815433926955	634.4548490960776	0.0	-1218.8245700247928	669.3975074497149	0.0			
11	0.3683409436834094	34.496362738340274	523.3307228711678	0.0	-601.9973147544748	882.639018206029	0.0																-999.7474111443031	871.2244692347607	0.0																10.556620295191875	608.7394935435719	0.0	8.392863987761027	554.4554061838286	0.0	27.016117460304383	551.9037463008258	0.0	7.591527840973417	628.032412102644	0.0	-284.9200037860277	725.8606445866	0.0				-14.455725832847751	634.0716257359861	0.0	-1204.622923657516	669.3742757365276	0.0			
12	0.4018264840182648	34.31456518242297	525.5887510081498	0.0	-594.525435424994	881.0070404771393	0.0																-987.8679244258101	869.7267726943891	0.0																10.707909754816983	608.5372888737863	0.0	8.657667261233021	554.4448447574858	0.0	26.461487629238377	552.499758534735	0.0	8.053562057153371	627.8498193545884	0.0	-281.0324070362246	725.2634224800471	0.0				-14.027711880797046	633.6884700964719	0.0	-1190.423786906796	669.3510481286875	0.0			
13	0.4353120243531202	34.132765217174764	527.8468090703801	0.0	-587.0534570720158	879.3750411199367	0.0																-975.988280270577	868.2290563053094	0.0																10.85920121945459	608.3350815242179	0.0	8.922474044096045	554.4342831911744	0.0	25.906850447761144	553.095778667489	0.0	8.515602396591213	627.6672241866632	0.0	-277.1447587647881	724.6661924586153	0.0				-13.599692256353006	633.3053093790636	0.0	-1176.224461977424	669.3278202130159	0.0			
14	0.4687975646879756	33.95095806972449	530.1049563396093	0.0	-579.581183530541	877.742977288854	0.0																-964.1081667972953	866.731280747342	0.0																11.010498661023325	608.1328661862319	0.0	9.187291288434256	554.423721207617	0.0	25.352191354748832	553.6918223466558	0.0	8.977660989426852	627.4846218051208	0.0	-273.2569569076485	724.0689388429728	0.0				-13.171655722535904	632.9221335244814	0.0	-1162.0245760885334	669.3045913797006	0.0			
15	0.502283105022831	33.76914874003876	532.3631307134328	0.0	-572.1088202991921	876.1108938680711	0.0																-952.2279107267336	865.2334872115396	0.0																11.161797918618792	607.9306484210504	0.0	9.45211171138005	554.4131590972837	0.0	24.797525604150447	554.287873180149	0.0	9.439725128362596	627.3020172317978	0.0	-269.3691083851323	723.4716780584807	0.0				-12.743614050986269	632.5389530706304	0.0	-1147.8245197580802	669.281362267569	0.0			
16	0.5357686453576864	33.5873400103453	534.6212976350141	0.0	-564.6364817275248	874.4788158333564	0.0																-940.3476938624212	863.7356986186328	0.0																11.313096676908827	607.7284313232113	0.0	9.716931260387149	554.4025970218067	0.0	24.242861684014592	554.8839220466039	0.0	9.901787742432068	627.1194132610914	0.0	-265.48127269297566	722.8744192450199	0.0				-12.315573792024738	632.1557738813201	0.0	-1133.624510289491	669.2581332320963	0.0			
